<svg width="1080" height="1080" viewBox="0 0 1080 1080" fill="none" xmlns="http://www.w3.org/2000/svg">
<circle cx="540" cy="540" r="521.5" fill="white" stroke="url(#paint0_linear_17_11)" stroke-width="37"/>
<path d="M154 502.83C154 498.446 154.523 494.264 155.57 490.286C156.644 486.307 158.255 482.825 160.403 479.841C162.579 476.82 165.306 474.426 168.583 472.657C171.861 470.852 175.716 469.949 180.151 469.949C183.18 469.949 185.741 470.465 187.835 471.497C189.928 472.491 191.663 473.762 193.04 475.31V453.979H185.852V450H217.662V529.577H224.892V533.555H193.04V529.134C191.911 531.161 190.327 532.745 188.289 533.887C186.251 535.066 183.538 535.655 180.151 535.655C175.716 535.655 171.861 534.771 168.583 533.003C165.306 531.234 162.579 528.84 160.403 525.819C158.255 522.798 156.644 519.316 155.57 515.374C154.523 511.395 154 507.214 154 502.83ZM186.43 529.3C187.449 529.3 188.385 529.024 189.239 528.471C190.093 527.882 190.823 526.961 191.429 525.708C192.062 524.419 192.558 522.779 192.916 520.79C193.274 518.801 193.453 516.369 193.453 513.495V489.401C193.453 487.965 193.302 486.454 192.999 484.87C192.696 483.286 192.228 481.831 191.594 480.504C190.961 479.178 190.162 478.091 189.198 477.244C188.262 476.36 187.16 475.918 185.893 475.918C184.736 475.918 183.745 476.397 182.918 477.354C182.092 478.275 181.417 479.804 180.894 481.941C180.371 484.078 179.985 486.859 179.737 490.286C179.49 493.675 179.366 497.856 179.366 502.83C179.366 507.84 179.476 512.04 179.696 515.43C179.944 518.819 180.343 521.545 180.894 523.608C181.445 525.635 182.175 527.09 183.084 527.974C183.993 528.858 185.108 529.3 186.43 529.3Z" fill="#2002C0"/>
<path d="M230.675 502.222C230.675 497.285 231.433 492.828 232.947 488.849C234.462 484.87 236.555 481.481 239.227 478.681C241.926 475.881 245.107 473.726 248.77 472.215C252.461 470.705 256.454 469.949 260.751 469.949C264.056 469.949 267.044 470.391 269.715 471.276C272.414 472.16 274.797 473.376 276.862 474.923C278.955 476.433 280.746 478.239 282.233 480.339C283.748 482.438 284.987 484.704 285.951 487.136C286.942 489.567 287.672 492.128 288.141 494.817C288.609 497.47 288.843 500.141 288.843 502.83H255.71C255.71 508.467 255.89 513.053 256.248 516.59C256.633 520.127 257.225 522.908 258.024 524.935C258.85 526.924 259.897 528.287 261.164 529.024C262.458 529.761 264.014 530.129 265.832 530.129C268.145 530.129 270.321 529.742 272.359 528.969C274.397 528.195 276.215 527.108 277.812 525.708C279.437 524.271 280.787 522.558 281.861 520.569C282.935 518.543 283.665 516.277 284.051 513.772H287.934C287.659 517.198 286.874 520.274 285.579 523C284.285 525.69 282.563 527.974 280.415 529.853C278.294 531.732 275.788 533.169 272.896 534.163C270.032 535.158 266.892 535.655 263.477 535.655C258.107 535.655 253.369 534.918 249.266 533.445C245.19 531.934 241.775 529.761 239.02 526.924C236.266 524.05 234.187 520.55 232.782 516.424C231.378 512.261 230.675 507.527 230.675 502.222ZM267.319 497.249C267.237 492.643 267.071 488.812 266.823 485.754C266.576 482.696 266.218 480.246 265.749 478.404C265.281 476.562 264.703 475.273 264.014 474.536C263.326 473.762 262.499 473.376 261.536 473.376C260.572 473.376 259.732 473.762 259.015 474.536C258.327 475.273 257.749 476.562 257.28 478.404C256.812 480.246 256.454 482.696 256.206 485.754C255.958 488.812 255.807 492.643 255.752 497.249H267.319Z" fill="#2002C0"/>
<path d="M299.419 476.028H292.23V472.049H330.733V476.028H325.198L336.476 513.44C337.054 511.414 337.688 509.203 338.376 506.809C339.065 504.377 339.753 501.927 340.442 499.459C341.158 496.991 341.846 494.596 342.507 492.275C343.168 489.954 343.76 487.873 344.284 486.03C344.807 484.188 345.234 482.66 345.564 481.444C345.895 480.228 346.088 479.51 346.143 479.289C346.225 479.031 346.267 478.81 346.267 478.625C346.267 478.147 346.074 477.741 345.688 477.41C345.33 477.078 344.807 476.82 344.118 476.636C343.457 476.415 342.659 476.268 341.722 476.194C340.813 476.083 339.808 476.028 338.707 476.028V472.049H357.958V476.028C356.746 476.028 355.7 476.102 354.818 476.249C353.965 476.36 353.235 476.562 352.629 476.857C352.05 477.115 351.568 477.465 351.183 477.907C350.825 478.349 350.549 478.883 350.357 479.51C350.136 480.136 349.792 481.278 349.324 482.936C348.856 484.557 348.291 486.509 347.63 488.794C346.969 491.078 346.239 493.62 345.44 496.42C344.669 499.183 343.871 502.038 343.044 504.985C342.218 507.932 341.392 510.861 340.566 513.772C339.767 516.682 339.01 519.408 338.293 521.95C337.605 524.492 336.985 526.777 336.434 528.803C335.884 530.829 335.457 532.413 335.154 533.555H317.431L299.419 476.028Z" fill="#2002C0"/>
<path d="M361.056 502.222C361.056 497.285 361.814 492.828 363.329 488.849C364.843 484.87 366.937 481.481 369.608 478.681C372.307 475.881 375.488 473.726 379.151 472.215C382.842 470.705 386.835 469.949 391.132 469.949C394.437 469.949 397.425 470.391 400.096 471.276C402.795 472.16 405.178 473.376 407.243 474.923C409.337 476.433 411.127 478.239 412.614 480.339C414.129 482.438 415.368 484.704 416.332 487.136C417.324 489.567 418.053 492.128 418.522 494.817C418.99 497.47 419.224 500.141 419.224 502.83H386.092C386.092 508.467 386.271 513.053 386.629 516.59C387.014 520.127 387.606 522.908 388.405 524.935C389.231 526.924 390.278 528.287 391.545 529.024C392.839 529.761 394.395 530.129 396.213 530.129C398.527 530.129 400.702 529.742 402.74 528.969C404.778 528.195 406.596 527.108 408.194 525.708C409.819 524.271 411.168 522.558 412.242 520.569C413.316 518.543 414.046 516.277 414.432 513.772H418.315C418.04 517.198 417.255 520.274 415.96 523C414.666 525.69 412.945 527.974 410.796 529.853C408.676 531.732 406.169 533.169 403.277 534.163C400.413 535.158 397.273 535.655 393.858 535.655C388.488 535.655 383.751 534.918 379.647 533.445C375.571 531.934 372.156 529.761 369.402 526.924C366.647 524.05 364.568 520.55 363.163 516.424C361.759 512.261 361.056 507.527 361.056 502.222ZM397.7 497.249C397.618 492.643 397.452 488.812 397.205 485.754C396.957 482.696 396.599 480.246 396.13 478.404C395.662 476.562 395.084 475.273 394.395 474.536C393.707 473.762 392.881 473.376 391.917 473.376C390.953 473.376 390.113 473.762 389.397 474.536C388.708 475.273 388.13 476.562 387.661 478.404C387.193 480.246 386.835 482.696 386.587 485.754C386.339 488.812 386.188 492.643 386.133 497.249H397.7Z" fill="#2002C0"/>
<path d="M426.288 529.577H433.518V453.979H426.288V450H458.099V529.577H465.328V533.555H426.288V529.577Z" fill="#2002C0"/>
<path d="M471.195 502.83C471.195 498.077 471.842 493.693 473.136 489.678C474.431 485.662 476.372 482.199 478.961 479.289C481.55 476.341 484.8 474.057 488.711 472.436C492.622 470.778 497.194 469.949 502.427 469.949C507.659 469.949 512.218 470.778 516.101 472.436C520.012 474.057 523.262 476.341 525.851 479.289C528.439 482.199 530.381 485.662 531.676 489.678C532.97 493.693 533.617 498.077 533.617 502.83C533.617 507.582 532.97 511.967 531.676 515.982C530.381 519.961 528.439 523.424 525.851 526.371C523.262 529.282 520.012 531.566 516.101 533.224C512.218 534.845 507.659 535.655 502.427 535.655C497.194 535.655 492.622 534.845 488.711 533.224C484.8 531.566 481.55 529.282 478.961 526.371C476.372 523.424 474.431 519.961 473.136 515.982C471.842 511.967 471.195 507.582 471.195 502.83ZM502.427 532.229C503.473 532.229 504.368 531.769 505.112 530.848C505.856 529.927 506.461 528.342 506.93 526.095C507.398 523.848 507.728 520.845 507.921 517.087C508.141 513.293 508.252 508.54 508.252 502.83C508.252 497.083 508.141 492.33 507.921 488.573C507.728 484.778 507.398 481.757 506.93 479.51C506.461 477.262 505.856 475.678 505.112 474.757C504.368 473.836 503.473 473.376 502.427 473.376C501.352 473.376 500.444 473.836 499.7 474.757C498.956 475.678 498.35 477.262 497.882 479.51C497.414 481.757 497.07 484.778 496.849 488.573C496.657 492.33 496.56 497.083 496.56 502.83C496.56 508.54 496.657 513.293 496.849 517.087C497.07 520.845 497.414 523.848 497.882 526.095C498.35 528.342 498.956 529.927 499.7 530.848C500.444 531.769 501.352 532.229 502.427 532.229Z" fill="#2002C0"/>
<path d="M547.911 551.626V476.028H540.682V472.049H572.492V476.47C573.621 474.444 575.205 472.86 577.243 471.718C579.309 470.539 582.035 469.949 585.423 469.949C589.857 469.949 593.713 470.852 596.99 472.657C600.268 474.426 602.98 476.82 605.129 479.841C607.277 482.825 608.874 486.307 609.921 490.286C610.995 494.264 611.532 498.446 611.532 502.83C611.532 507.214 610.995 511.395 609.921 515.374C608.874 519.316 607.277 522.798 605.129 525.819C602.98 528.84 600.268 531.234 596.99 533.003C593.713 534.771 589.857 535.655 585.423 535.655C582.366 535.655 579.79 535.14 577.697 534.108C575.632 533.113 573.897 531.842 572.492 530.295V551.626H579.722V555.605H540.682V551.626H547.911ZM572.079 516.203C572.079 517.64 572.23 519.151 572.533 520.735C572.864 522.319 573.346 523.774 573.979 525.1C574.613 526.427 575.398 527.532 576.334 528.416C577.298 529.263 578.427 529.687 579.722 529.687C580.878 529.687 581.87 529.227 582.696 528.305C583.522 527.348 584.183 525.819 584.679 523.719C585.202 521.582 585.574 518.801 585.794 515.374C586.042 511.948 586.166 507.767 586.166 502.83C586.166 497.783 586.042 493.564 585.794 490.175C585.574 486.786 585.189 484.059 584.638 481.996C584.087 479.933 583.371 478.478 582.49 477.631C581.608 476.747 580.507 476.304 579.185 476.304C578.138 476.304 577.174 476.599 576.293 477.189C575.439 477.741 574.695 478.662 574.062 479.952C573.456 481.204 572.974 482.825 572.616 484.815C572.258 486.804 572.079 489.236 572.079 492.109V516.203Z" fill="#2002C0"/>
<path d="M618.555 529.577H625.785V476.028H618.555V472.049H650.365V479.123C652.156 476.212 654.469 473.965 657.306 472.381C660.143 470.76 663.406 469.949 667.097 469.949C671.696 469.949 675.318 470.926 677.962 472.878C680.606 474.831 682.547 477.594 683.787 481.167C684.448 479.583 685.357 478.11 686.513 476.747C687.67 475.383 688.992 474.205 690.479 473.21C691.967 472.178 693.592 471.386 695.354 470.834C697.117 470.244 698.935 469.949 700.807 469.949C704.939 469.949 708.326 470.576 710.97 471.828C713.642 473.044 715.749 474.849 717.291 477.244C718.861 479.602 719.935 482.512 720.513 485.975C721.119 489.401 721.422 493.343 721.422 497.801V529.577H728.652V533.555H692.71V529.577H696.842V497.801C696.842 494.007 696.759 490.912 696.594 488.517C696.428 486.086 696.139 484.188 695.726 482.825C695.313 481.425 694.762 480.467 694.074 479.952C693.385 479.399 692.518 479.123 691.471 479.123C689.681 479.123 688.276 479.933 687.257 481.554C686.266 483.138 685.618 485.257 685.315 487.909C685.536 489.42 685.687 491.004 685.77 492.662C685.852 494.283 685.894 495.996 685.894 497.801V529.577H689.984V533.555H657.182V529.577H661.313V497.801C661.313 494.007 661.23 490.912 661.065 488.517C660.9 486.086 660.611 484.188 660.198 482.825C659.785 481.425 659.234 480.467 658.545 479.952C657.857 479.399 656.989 479.123 655.943 479.123C654.896 479.123 654.015 479.418 653.299 480.007C652.582 480.596 652.004 481.425 651.563 482.494C651.123 483.562 650.806 484.833 650.613 486.307C650.448 487.78 650.365 489.383 650.365 491.115V529.577H654.455V533.555H618.555V529.577Z" fill="#2002C0"/>
<path d="M733.692 502.222C733.692 497.285 734.449 492.828 735.964 488.849C737.479 484.87 739.572 481.481 742.244 478.681C744.943 475.881 748.124 473.726 751.787 472.215C755.477 470.705 759.471 469.949 763.767 469.949C767.072 469.949 770.06 470.391 772.732 471.276C775.431 472.16 777.813 473.376 779.879 474.923C781.972 476.433 783.762 478.239 785.249 480.339C786.764 482.438 788.004 484.704 788.968 487.136C789.959 489.567 790.689 492.128 791.157 494.817C791.625 497.47 791.859 500.141 791.859 502.83H758.727C758.727 508.467 758.906 513.053 759.264 516.59C759.65 520.127 760.242 522.908 761.041 524.935C761.867 526.924 762.913 528.287 764.18 529.024C765.475 529.761 767.031 530.129 768.849 530.129C771.162 530.129 773.338 529.742 775.376 528.969C777.414 528.195 779.232 527.108 780.829 525.708C782.454 524.271 783.804 522.558 784.878 520.569C785.952 518.543 786.682 516.277 787.067 513.772H790.951C790.675 517.198 789.89 520.274 788.596 523C787.301 525.69 785.58 527.974 783.432 529.853C781.311 531.732 778.805 533.169 775.913 534.163C773.049 535.158 769.909 535.655 766.494 535.655C761.123 535.655 756.386 534.918 752.282 533.445C748.206 531.934 744.791 529.761 742.037 526.924C739.283 524.05 737.204 520.55 735.799 516.424C734.394 512.261 733.692 507.527 733.692 502.222ZM770.336 497.249C770.253 492.643 770.088 488.812 769.84 485.754C769.592 482.696 769.234 480.246 768.766 478.404C768.298 476.562 767.719 475.273 767.031 474.536C766.342 473.762 765.516 473.376 764.552 473.376C763.588 473.376 762.748 473.762 762.032 474.536C761.344 475.273 760.765 476.562 760.297 478.404C759.829 480.246 759.471 482.696 759.223 485.754C758.975 488.812 758.824 492.643 758.768 497.249H770.336Z" fill="#2002C0"/>
<path d="M798.924 529.577H806.153V476.028H798.924V472.049H830.734V479.123C831.616 477.686 832.676 476.397 833.915 475.254C835.182 474.112 836.573 473.155 838.088 472.381C839.603 471.57 841.214 470.963 842.921 470.557C844.656 470.152 846.433 469.949 848.25 469.949C851.996 469.949 855.081 470.613 857.504 471.939C859.956 473.228 861.883 475.089 863.288 477.52C864.693 479.915 865.67 482.844 866.221 486.307C866.772 489.733 867.048 493.564 867.048 497.801V529.577H874.277V533.555H838.336V529.577H842.467V497.801C842.467 494.007 842.384 490.912 842.219 488.517C842.054 486.086 841.765 484.188 841.351 482.825C840.938 481.425 840.388 480.467 839.699 479.952C839.01 479.399 838.143 479.123 837.096 479.123C836.05 479.123 835.127 479.418 834.328 480.007C833.53 480.596 832.855 481.425 832.304 482.494C831.781 483.562 831.381 484.833 831.106 486.307C830.858 487.78 830.734 489.383 830.734 491.115V529.577H834.824V533.555H798.924V529.577Z" fill="#2002C0"/>
<path d="M883.862 476.028H876.632V472.049H883.862C886.643 472.049 889.136 471.423 891.339 470.17C893.57 468.881 895.457 467.223 896.999 465.197C898.569 463.134 899.767 460.831 900.593 458.289C901.419 455.747 901.832 453.205 901.832 450.663H908.442V472.049H921.745V476.028H908.442V510.069C908.442 514.011 908.594 517.235 908.897 519.74C909.227 522.208 909.682 524.142 910.26 525.542C910.866 526.942 911.568 527.9 912.367 528.416C913.193 528.895 914.102 529.134 915.094 529.134C916.058 529.134 916.994 528.858 917.903 528.305C918.812 527.716 919.61 526.795 920.299 525.542C920.987 524.253 921.538 522.595 921.951 520.569C922.365 518.506 922.571 515.982 922.571 512.998C922.571 512.298 922.557 511.58 922.53 510.843C922.502 510.069 922.461 509.277 922.406 508.467H925.876C925.959 510.309 926 511.985 926 513.495C926 518.101 925.518 521.858 924.554 524.769C923.618 527.642 922.268 529.89 920.505 531.511C918.743 533.132 916.595 534.237 914.061 534.826C911.554 535.416 908.732 535.711 905.592 535.711C902.066 535.711 898.954 535.25 896.255 534.329C893.556 533.408 891.284 531.953 889.439 529.963C887.593 527.937 886.203 525.34 885.266 522.171C884.33 519.003 883.862 515.153 883.862 510.622V476.028Z" fill="#2002C0"/>
<path d="M715.095 611.118C715.095 615.042 714.361 618.324 712.895 620.965C711.428 623.605 709.341 625.605 706.634 626.963C703.926 628.321 700.711 629 696.989 629C693.83 629 691.094 628.66 688.782 627.981C686.525 627.302 684.523 626.359 682.775 625.152V616.098C684.58 617.305 686.751 618.437 689.289 619.493C691.884 620.474 694.507 620.965 697.158 620.965C700.937 620.965 703.673 620.172 705.365 618.588C707.057 616.928 707.903 614.74 707.903 612.024C707.903 610.515 707.593 609.157 706.972 607.949C706.352 606.742 705.224 605.535 703.588 604.328C702.009 603.121 699.724 601.762 696.735 600.253C693.802 598.744 691.292 597.235 689.205 595.726C687.118 594.217 685.51 592.407 684.382 590.294C683.254 588.181 682.69 585.465 682.69 582.145C682.69 577.015 684.241 573.054 687.343 570.262C690.502 567.47 694.62 566.074 699.696 566.074C702.46 566.074 705.026 566.452 707.395 567.206C709.821 567.885 712.077 568.866 714.164 570.149L711.626 578.071C710.385 577.317 709.059 576.675 707.649 576.147C706.295 575.543 704.914 575.091 703.503 574.789C702.093 574.412 700.655 574.223 699.188 574.223C696.143 574.223 693.802 574.902 692.166 576.26C690.587 577.543 689.797 579.316 689.797 581.579C689.797 583.239 690.164 584.673 690.897 585.88C691.63 587.012 692.843 588.144 694.535 589.275C696.284 590.332 698.596 591.614 701.473 593.123C704.349 594.557 706.803 596.028 708.834 597.537C710.864 599.046 712.415 600.895 713.487 603.083C714.559 605.195 715.095 607.874 715.095 611.118Z" fill="#0F0457"/>
<path d="M741.197 620.851C742.325 620.851 743.482 620.738 744.666 620.512C745.851 620.21 746.81 619.908 747.543 619.606V627.189C746.753 627.717 745.625 628.132 744.158 628.434C742.692 628.811 741.282 629 739.928 629C737.559 629 735.359 628.472 733.329 627.416C731.355 626.284 729.747 624.36 728.506 621.644C727.265 618.927 726.645 615.117 726.645 610.213V574.902H720.215V570.149L726.729 566.188L729.691 553.286H734.09V567.206H747.204V574.902H734.09V609.987C734.09 613.684 734.739 616.438 736.036 618.248C737.39 619.984 739.11 620.851 741.197 620.851Z" fill="#0F0457"/>
<path d="M794.528 567.206V627.868H788.436L787.336 619.833H786.998C786.039 621.945 784.798 623.681 783.275 625.039C781.752 626.397 780.088 627.378 778.283 627.981C776.478 628.66 774.588 629 772.614 629C769.004 629 765.958 628.245 763.477 626.736C761.051 625.152 759.218 622.738 757.977 619.493C756.736 616.249 756.116 612.061 756.116 606.931V567.206H763.646V606.252C763.646 611.081 764.464 614.702 766.1 617.117C767.735 619.531 770.274 620.738 773.714 620.738C777.098 620.738 779.749 619.908 781.667 618.248C783.641 616.513 785.023 614.023 785.813 610.779C786.659 607.459 787.082 603.46 787.082 598.782V567.206H794.528Z" fill="#0F0457"/>
<path d="M825 629C819.36 629 814.847 626.397 811.463 621.191C808.079 615.909 806.387 608.063 806.387 597.65C806.387 587.238 808.079 579.391 811.463 574.11C814.904 568.753 819.444 566.074 825.085 566.074C827.454 566.074 829.512 566.489 831.261 567.319C833.01 568.074 834.533 569.13 835.83 570.488C837.127 571.846 838.227 573.355 839.129 575.015H839.637C839.581 574.034 839.468 572.601 839.299 570.715C839.186 568.753 839.129 567.206 839.129 566.074V541.855H846.575V627.868H840.568L839.468 619.72H839.129C838.227 621.455 837.127 623.039 835.83 624.473C834.533 625.831 832.981 626.925 831.176 627.755C829.428 628.585 827.369 629 825 629ZM826.185 620.738C830.979 620.738 834.335 619.003 836.253 615.532C838.227 611.986 839.214 606.667 839.214 599.574V597.764C839.214 590.219 838.283 584.447 836.422 580.448C834.561 576.373 831.12 574.336 826.1 574.336C822.095 574.336 819.078 576.487 817.047 580.787C815.073 585.012 814.086 590.709 814.086 597.877C814.086 605.12 815.073 610.741 817.047 614.74C819.078 618.739 822.123 620.738 826.185 620.738Z" fill="#0F0457"/>
<path d="M868.423 567.206V627.868H860.978V567.206H868.423ZM864.785 544.458C865.913 544.458 866.9 544.986 867.747 546.042C868.649 547.023 869.1 548.608 869.1 550.796C869.1 552.908 868.649 554.493 867.747 555.549C866.9 556.605 865.913 557.134 864.785 557.134C863.544 557.134 862.501 556.605 861.655 555.549C860.809 554.493 860.386 552.908 860.386 550.796C860.386 548.608 860.809 547.023 861.655 546.042C862.501 544.986 863.544 544.458 864.785 544.458Z" fill="#0F0457"/>
<path d="M922.218 597.424C922.218 602.479 921.71 606.968 920.695 610.892C919.736 614.74 918.326 618.022 916.464 620.738C914.659 623.454 912.431 625.529 909.78 626.963C907.186 628.321 904.281 629 901.066 629C898.077 629 895.313 628.321 892.774 626.963C890.236 625.529 888.036 623.454 886.175 620.738C884.314 618.022 882.847 614.74 881.776 610.892C880.76 606.968 880.253 602.479 880.253 597.424C880.253 590.709 881.099 585.05 882.791 580.448C884.483 575.77 886.908 572.224 890.067 569.809C893.226 567.319 896.977 566.074 901.32 566.074C905.437 566.074 909.047 567.319 912.15 569.809C915.308 572.224 917.762 575.77 919.51 580.448C921.315 585.05 922.218 590.709 922.218 597.424ZM887.952 597.424C887.952 602.177 888.403 606.327 889.306 609.873C890.264 613.344 891.731 616.023 893.705 617.909C895.679 619.795 898.189 620.738 901.235 620.738C904.281 620.738 906.791 619.795 908.765 617.909C910.739 616.023 912.178 613.344 913.08 609.873C914.039 606.327 914.518 602.177 914.518 597.424C914.518 592.595 914.039 588.483 913.08 585.088C912.121 581.693 910.655 579.09 908.681 577.279C906.763 575.393 904.253 574.449 901.151 574.449C896.525 574.449 893.169 576.487 891.082 580.561C888.995 584.635 887.952 590.256 887.952 597.424Z" fill="#0F0457"/>
<defs>
<linearGradient id="paint0_linear_17_11" x1="151.5" y1="168" x2="1080" y2="706" gradientUnits="userSpaceOnUse">
<stop stop-color="#0F0457"/>
<stop offset="1" stop-color="#2002C0"/>
</linearGradient>
</defs>
</svg>
